<?xml version="1.0" standalone="no"?>
<!DOCTYPE svg PUBLIC "-//W3C//DTD SVG 20010904//EN"
 "http://www.w3.org/TR/2001/REC-SVG-20010904/DTD/svg10.dtd">
<svg version="1.0" xmlns="http://www.w3.org/2000/svg"
 width="458.000000pt" height="458.000000pt" viewBox="0 0 458.000000 458.000000"
 preserveAspectRatio="xMidYMid meet">
<metadata>
Created by potrace 1.14, written by Peter Selinger 2001-2017
</metadata>
<g transform="translate(0.000000,458.000000) scale(0.100000,-0.100000)"
fill="#000000" stroke="none">
<path d="M930 4556 c0 -4 -7 -5 -16 -2 -8 3 -13 2 -9 -3 3 -5 0 -11 -5 -13
-16 -5 -870 -860 -870 -871 0 -4 -4 -6 -8 -3 -4 2 -9 -5 -10 -17 -2 -27 -3
-3557 0 -3574 1 -7 5 -10 10 -7 4 3 9 0 9 -5 1 -6 2 -17 3 -23 1 -7 10 -12 20
-10 10 2 16 -1 12 -6 -3 -5 0 -10 7 -12 7 -1 383 -4 837 -6 558 -2 826 0 831
7 3 6 14 11 23 13 21 3 286 266 286 283 0 7 4 13 9 13 10 0 274 265 279 280 2
6 7 8 11 5 4 -2 7 21 5 53 -3 83 -5 91 -25 97 -9 3 -20 12 -22 20 -5 11 -120
13 -709 14 -387 0 -709 0 -716 1 -7 0 -25 12 -39 27 -15 16 -23 22 -19 16 4
-7 4 -13 1 -13 -3 0 -13 16 -21 35 -12 29 -14 240 -14 1480 l0 1445 23 1 c12
0 239 0 504 1 276 0 480 4 477 9 -3 5 -1 9 4 9 5 0 67 60 139 133 71 72 196
200 279 282 l149 150 -140 -145 -140 -145 147 144 c81 80 144 149 141 154 -3
6 0 15 8 21 17 14 18 86 1 104 -7 8 -10 17 -7 22 6 10 -12 23 -40 27 -10 2
-22 7 -25 11 -7 10 -1380 9 -1380 -2z m1110 -4259 c0 -1 -62 -63 -137 -137
l-138 -135 135 138 c125 127 140 142 140 134z"/>
<path d="M2757 4556 c3 -5 0 -7 -7 -4 -6 2 -42 -26 -78 -62 l-67 -66 60 66
c33 36 -137 -131 -378 -370 -240 -239 -437 -437 -437 -440 0 -3 165 159 368
360 l367 365 -370 -373 c-204 -205 -369 -375 -366 -377 2 -3 0 -5 -5 -5 -5 0
-8 -346 -6 -867 3 -917 3 -904 13 -898 3 3 12 -7 19 -20 7 -13 17 -22 22 -19
4 3 8 1 8 -3 0 -4 387 -8 859 -8 473 0 857 -3 855 -7 -4 -6 16 -15 41 -19 6
-1 20 -16 32 -33 12 -17 26 -35 30 -41 4 -5 8 -220 8 -478 l0 -467 -55 0 c-30
0 -258 -1 -506 -1 l-451 -1 -289 -286 -289 -287 275 280 275 280 -282 -279
c-155 -154 -281 -282 -281 -285 1 -3 -4 -19 -11 -36 -20 -47 3 -166 29 -150 5
3 15 -1 23 -9 13 -13 119 -15 756 -15 654 0 743 2 748 15 3 8 11 13 18 10 6
-2 207 191 446 430 239 239 430 434 425 434 -5 0 -3 6 3 14 13 16 21 1636 8
1636 -5 0 -5 5 -2 10 3 6 1 10 -4 10 -6 0 -11 6 -11 14 0 8 -5 18 -12 22 -7 5
-9 2 -4 -7 6 -10 4 -10 -6 1 -7 8 -20 17 -28 18 -8 2 -409 4 -890 4 -964 0
-917 -3 -964 61 -21 28 -21 37 -22 568 -1 385 2 539 10 539 6 1 268 1 583 2
l571 0 294 292 293 291 -280 -285 -280 -285 285 283 c302 298 288 281 294 377
1 17 -5 39 -13 49 -14 17 -14 18 -1 11 8 -4 6 1 -5 12 -11 12 -22 21 -25 21
-26 0 -40 3 -37 10 3 4 -347 7 -778 7 -448 0 -781 -4 -778 -9z m1793 -3669 c0
-1 -195 -196 -432 -432 l-433 -430 430 433 c400 401 435 436 435 429z"/>
</g>
</svg>
